<svg xmlns="http://www.w3.org/2000/svg" viewBox="0 0 351 110"><g fill="#f0f7f5" transform="translate(2,88)"><path transform="translate(0.00,0) scale(0.084000,-0.084000)" d="M241 0V696H398V0ZM20 569V706H619V569Z"/><path transform="translate(53.68,0) scale(0.084000,-0.084000)" d="M270 -11Q203 -11 151.5 16.5Q100 44 71.0 92.5Q42 141 42 204V486H195V206Q195 181 203.5 163.0Q212 145 229.0 135.0Q246 125 270 125Q304 125 324.0 146.5Q344 168 344 206V486H497V205Q497 141 468.0 92.5Q439 44 388.0 16.5Q337 -11 270 -11Z"/><path transform="translate(98.95,0) scale(0.084000,-0.084000)" d="M54 0V726H207V0Z"/><path transform="translate(120.88,0) scale(0.084000,-0.084000)" d="M334 -10Q285 -10 244.0 9.0Q203 28 177.0 61.5Q151 95 147 138V343Q151 386 177.0 421.0Q203 456 244.0 476.0Q285 496 334 496Q403 496 456.5 463.0Q510 430 540.5 373.0Q571 316 571 243Q571 170 540.5 113.0Q510 56 456.5 23.0Q403 -10 334 -10ZM54 -205V486H207V361L182 243L205 125V-205ZM306 128Q339 128 363.5 143.0Q388 158 402.0 184.0Q416 210 416 243Q416 277 402.0 303.0Q388 329 363.5 343.5Q339 358 307 358Q275 358 250.5 343.5Q226 329 212.0 303.0Q198 277 198 243Q198 210 211.5 184.0Q225 158 250.0 143.0Q275 128 306 128Z"/><path transform="translate(170.86,0) scale(0.084000,-0.084000)" d="M257 -10Q190 -10 137.5 23.0Q85 56 54.5 113.0Q24 170 24 243Q24 316 54.5 373.0Q85 430 137.5 463.0Q190 496 257 496Q306 496 345.5 477.0Q385 458 410.0 424.5Q435 391 438 348V138Q435 95 410.5 61.5Q386 28 346.0 9.0Q306 -10 257 -10ZM288 128Q337 128 367.0 160.5Q397 193 397 243Q397 277 383.5 303.0Q370 329 345.5 343.5Q321 358 289 358Q257 358 232.5 343.5Q208 329 193.5 303.0Q179 277 179 243Q179 210 193.0 184.0Q207 158 232.0 143.0Q257 128 288 128ZM391 0V131L414 249L391 367V486H541V0Z"/><path transform="translate(220.84,0) scale(0.084000,-0.084000)" d="M54 0V486H207V0ZM207 267 143 317Q162 402 207.0 449.0Q252 496 332 496Q367 496 393.5 485.5Q420 475 440 453L349 338Q339 349 324.0 355.0Q309 361 290 361Q252 361 229.5 337.5Q207 314 207 267Z"/></g><g fill="#00C57A" transform="translate(260.1,88)"><path transform="translate(0.00,0) scale(0.084000,-0.084000)" d="M352 -11Q265 -11 198.5 26.0Q132 63 94.5 128.5Q57 194 57 278V706H215V269Q215 227 233.0 196.0Q251 165 282.5 148.5Q314 132 352 132Q392 132 422.0 148.5Q452 165 469.5 195.5Q487 226 487 268V706H645V277Q645 193 608.0 128.0Q571 63 505.0 26.0Q439 -11 352 -11Z"/><path transform="translate(58.97,0) scale(0.084000,-0.084000)" d="M54 0V486H207V0ZM131 553Q95 553 71.5 577.5Q48 602 48 637Q48 673 71.5 697.0Q95 721 131 721Q167 721 190.0 697.0Q213 673 213 637Q213 602 190.0 577.5Q167 553 131 553Z"/></g></svg>